<?xml version="1.0" standalone="no"?>
<!DOCTYPE svg PUBLIC "-//W3C//DTD SVG 20010904//EN"
 "http://www.w3.org/TR/2001/REC-SVG-20010904/DTD/svg10.dtd">
<svg version="1.0" xmlns="http://www.w3.org/2000/svg"
 width="512.000000pt" height="512.000000pt" viewBox="0 0 512.000000 512.000000"
 preserveAspectRatio="xMidYMid meet">
<metadata>
Created by potrace 1.14, written by Peter Selinger 2001-2017
</metadata>
<g transform="translate(0.000000,512.000000) scale(0.100000,-0.100000)"
fill="#000000" stroke="none">
<path d="M2378 5105 c-1 -1 -37 -6 -78 -9 -41 -3 -87 -8 -102 -11 -29 -5 -45
-8 -113 -20 -85 -15 -235 -56 -350 -95 -232 -79 -559 -259 -717 -392 -14 -13
-46 -39 -70 -58 -23 -18 -99 -90 -168 -160 -216 -216 -405 -492 -519 -760 -18
-41 -39 -88 -46 -105 -35 -79 -112 -351 -129 -455 -3 -19 -8 -48 -12 -65 -21
-111 -32 -272 -29 -460 2 -115 5 -219 8 -230 3 -11 8 -45 11 -75 48 -417 236
-871 502 -1217 87 -113 105 -134 219 -249 130 -130 202 -192 375 -315 40 -29
188 -119 196 -119 2 0 21 -10 42 -23 130 -81 490 -208 682 -241 19 -3 44 -8
55 -10 11 -2 43 -7 70 -11 28 -4 61 -9 75 -11 47 -9 445 -12 505 -4 33 4 85
11 115 15 433 54 919 271 1257 560 318 272 569 617 720 990 71 175 140 419
159 560 3 28 7 52 9 55 18 30 27 489 12 625 -46 430 -181 807 -417 1170 -29
44 -55 82 -59 85 -3 3 -25 30 -47 60 -88 118 -252 289 -374 391 -36 30 -67 56
-70 59 -11 12 -118 88 -195 138 -85 55 -392 212 -417 212 -8 0 -18 4 -23 9
-16 14 -221 79 -335 105 -129 30 -186 39 -330 55 -72 8 -405 13 -412 6z"/>
</g>
</svg>
