<?xml version="1.0" standalone="no"?>
<!DOCTYPE svg PUBLIC "-//W3C//DTD SVG 20010904//EN"
 "http://www.w3.org/TR/2001/REC-SVG-20010904/DTD/svg10.dtd">
<svg version="1.0" xmlns="http://www.w3.org/2000/svg"
 width="254.000000pt" height="254.000000pt" viewBox="0 0 254.000000 254.000000"
 preserveAspectRatio="xMidYMid meet">
<metadata>
Created by potrace 1.14, written by Peter Selinger 2001-2017
</metadata>
<g transform="translate(0.000000,254.000000) scale(0.100000,-0.100000)"
fill="#000000" stroke="none">
<path d="M512 2524 c-143 -18 -248 -69 -338 -161 -80 -81 -120 -161 -150 -298
-9 -42 -12 -1475 -3 -1538 12 -89 19 -115 39 -167 65 -165 213 -286 395 -325
71 -16 161 -18 795 -19 720 -1 803 2 895 31 188 59 338 219 371 396 18 96 20
192 19 862 -2 808 -1 801 -68 933 -37 75 -132 177 -199 214 -57 32 -156 64
-223 74 -85 12 -1435 10 -1533 -2z"/>
</g>
</svg>
