<?xml version="1.0" standalone="no"?>
<!DOCTYPE svg PUBLIC "-//W3C//DTD SVG 20010904//EN"
 "http://www.w3.org/TR/2001/REC-SVG-20010904/DTD/svg10.dtd">
<svg version="1.0" xmlns="http://www.w3.org/2000/svg"
 width="180.000000pt" height="180.000000pt" viewBox="0 0 180.000000 180.000000"
 preserveAspectRatio="xMidYMid meet">
<metadata>
Created by potrace 1.14, written by Peter Selinger 2001-2017
</metadata>
<g transform="translate(0.000000,180.000000) scale(0.100000,-0.100000)"
fill="#000000" stroke="none">
<path d="M502 1775 c-41 -22 -102 -88 -125 -135 -19 -40 -22 -62 -23 -190 -1
-82 -6 -157 -13 -173 -6 -16 -11 -40 -11 -53 0 -28 -17 -28 -34 -1 -8 12 -5
26 12 55 56 100 -9 234 -137 282 l-52 20 -19 -43 c-11 -23 -22 -61 -26 -83
-13 -86 70 -204 154 -219 24 -4 49 -17 65 -33 23 -25 25 -36 29 -140 5 -118
-7 -145 -14 -31 -3 53 -10 75 -36 116 -37 58 -113 111 -186 130 -85 22 -88 20
-81 -34 12 -87 25 -121 65 -172 52 -66 104 -100 169 -110 29 -5 60 -16 69 -25
17 -17 55 -216 41 -216 -14 0 -27 26 -39 78 -25 106 -93 151 -227 152 -63 0
-83 -3 -83 -13 0 -37 32 -113 65 -153 54 -65 83 -77 174 -71 104 6 120 -3 159
-97 37 -86 36 -86 19 -86 -7 0 -34 25 -60 55 -38 43 -58 58 -99 70 -28 8 -65
15 -82 15 -38 0 -94 -34 -131 -78 -26 -31 -27 -34 -10 -52 10 -11 37 -29 61
-41 40 -19 54 -20 142 -14 53 4 111 13 129 20 17 8 41 11 52 8 21 -5 107 -120
97 -130 -3 -3 -23 6 -44 21 -75 51 -143 56 -224 15 -20 -10 -43 -29 -49 -41
-10 -19 -7 -26 29 -59 22 -21 53 -41 68 -45 38 -10 123 19 177 61 25 19 50 35
54 35 5 0 25 -16 44 -36 18 -20 63 -57 97 -82 53 -39 60 -48 43 -50 -12 -2
-43 10 -68 27 -87 58 -198 26 -249 -71 -27 -51 13 -84 114 -94 74 -8 110 9
158 76 29 41 41 50 66 50 30 0 128 -37 128 -49 0 -4 -27 -26 -60 -50 -59 -43
-67 -55 -52 -78 5 -9 27 6 72 47 35 33 71 60 80 60 9 0 45 -27 80 -60 45 -41
67 -56 72 -47 15 23 7 35 -52 78 -33 24 -60 46 -60 50 0 12 98 49 128 49 25 0
37 -9 66 -50 48 -67 84 -84 158 -76 65 6 112 27 122 51 13 36 -52 113 -113
134 -55 18 -91 13 -142 -20 -27 -17 -58 -29 -69 -27 -18 2 -11 11 42 50 34 25
79 62 97 82 19 20 39 36 44 36 4 0 29 -16 54 -35 54 -42 139 -71 177 -61 15 4
46 24 68 45 36 33 39 40 29 59 -6 12 -29 31 -49 41 -81 41 -149 36 -224 -15
-21 -15 -41 -24 -44 -21 -10 10 76 125 97 130 11 3 35 0 52 -8 18 -7 76 -16
129 -20 88 -6 102 -5 142 14 24 12 51 30 61 41 17 18 16 21 -10 52 -36 43 -93
78 -128 78 -16 0 -53 -7 -83 -16 -44 -13 -63 -25 -101 -70 -26 -30 -53 -54
-60 -54 -17 0 -18 0 19 86 39 94 55 103 160 97 67 -5 81 -3 112 16 48 30 95
92 112 148 22 74 24 73 -68 73 -135 -1 -203 -46 -228 -152 -12 -52 -25 -78
-39 -78 -14 0 24 199 41 216 9 9 40 20 69 25 65 10 117 44 169 110 40 51 53
85 65 172 5 41 4 47 -12 47 -41 0 -122 -28 -170 -59 -83 -54 -123 -125 -123
-217 0 -29 -4 -55 -8 -58 -5 -3 -7 45 -4 107 4 103 6 114 29 139 16 16 41 29
65 33 84 15 167 133 154 219 -4 22 -15 60 -26 83 l-19 43 -52 -20 c-128 -48
-193 -182 -137 -282 17 -29 20 -43 12 -55 -17 -27 -34 -27 -34 1 0 13 -5 37
-11 53 -7 16 -12 91 -13 173 -1 165 -9 191 -76 264 -35 38 -99 83 -105 74 -14
-24 -30 -108 -30 -158 0 -87 30 -146 118 -235 70 -70 97 -119 97 -177 0 -18
-5 -28 -12 -26 -13 5 -18 13 -51 88 -57 132 -151 183 -269 148 l-40 -12 6 -43
c9 -66 30 -97 93 -139 53 -35 65 -39 148 -44 103 -7 121 -13 129 -43 10 -36 7
-124 -5 -154 l-11 -28 -28 60 c-37 79 -104 144 -167 160 -55 14 -156 8 -150
-9 2 -6 12 -41 22 -79 32 -118 107 -164 240 -147 90 11 98 5 90 -69 -10 -94
-35 -199 -50 -211 -18 -15 -21 -7 -29 69 -12 118 -120 209 -249 211 -41 0 -48
-3 -43 -17 2 -10 10 -44 16 -77 21 -102 110 -179 225 -192 35 -4 59 -12 62
-21 8 -21 -58 -156 -104 -212 -2 -3 -9 1 -16 8 -8 8 -12 44 -12 101 l0 89 -38
38 c-30 31 -49 42 -97 51 -33 7 -65 10 -70 7 -6 -3 -10 -31 -10 -62 0 -42 6
-67 25 -98 27 -47 52 -66 110 -85 38 -12 95 -55 95 -72 0 -13 -122 -128 -136
-128 -10 0 -12 17 -8 78 6 70 4 80 -18 112 -20 30 -131 119 -150 120 -11 0
-28 -62 -28 -104 0 -23 10 -62 23 -86 18 -37 33 -51 87 -78 41 -21 65 -39 65
-50 0 -17 -77 -65 -153 -94 -39 -15 -45 -15 -85 0 -74 29 -152 77 -152 94 0
10 25 29 65 50 53 27 69 41 88 78 12 24 22 63 22 86 0 43 -17 104 -29 104 -17
0 -134 -94 -152 -123 -18 -27 -20 -43 -15 -109 3 -51 2 -78 -5 -78 -15 0 -105
78 -125 107 -15 24 -15 26 12 54 15 16 32 29 37 29 4 0 30 10 57 21 73 31 110
91 110 176 0 71 3 69 -83 52 -43 -9 -65 -20 -92 -47 -44 -44 -49 -65 -41 -152
5 -54 3 -70 -9 -80 -9 -7 -17 -11 -19 -9 -47 59 -111 191 -103 212 3 9 27 17
62 21 73 8 121 33 173 90 23 25 42 47 42 49 0 10 21 114 26 131 6 18 2 19 -59
14 -135 -11 -237 -111 -237 -232 0 -48 -11 -64 -29 -43 -13 17 -37 122 -46
203 -9 79 -1 85 87 74 143 -17 213 28 247 160 11 41 18 76 17 78 -12 11 -146
3 -179 -11 -51 -22 -103 -80 -137 -152 l-28 -60 -11 28 c-12 30 -15 118 -5
154 8 30 26 36 129 43 82 5 95 9 145 42 63 42 88 78 96 141 l6 44 -45 12 c-63
15 -95 14 -142 -8 -51 -23 -91 -69 -122 -141 -33 -75 -38 -83 -51 -88 -7 -2
-12 8 -12 26 0 58 27 107 97 177 88 89 118 148 118 235 0 60 -22 161 -35 159
-3 -1 -16 -7 -28 -14z m410 -1637 c-9 -9 -15 -9 -24 0 -9 9 -7 12 12 12 19 0
21 -3 12 -12z"/>
</g>
</svg>
